<svg width="20" height="20" viewBox="0 0 20 20" xmlns="http://www.w3.org/2000/svg"><title>Shape</title><path d="M20 12.055v-4.11l-1.918-.274a3.759 3.759 0 0 0-.548-1.644l.822-1.643-2.74-2.74-1.643.822a4.226 4.226 0 0 0-1.644-.548L12.055 0h-4.11l-.274 1.918a5.14 5.14 0 0 0-1.644.548l-1.643-.822-2.74 2.74.822 1.643c-.203.42-.433.975-.548 1.644L0 7.945v4.11l1.918.274c.112.66.337 1.205.548 1.644l-.822 1.643 2.74 2.74 1.643-.822c.433.223.984.454 1.644.548L7.945 20h4.11l.274-1.918a4.242 4.242 0 0 0 1.644-.548l1.643.822 2.74-2.74-.822-1.643a3.74 3.74 0 0 0 .548-1.644L20 12.055zM10 16.35a6.35 6.35 0 1 1 0-12.7 6.35 6.35 0 0 1 0 12.7z" fill="#289D6F"/></svg>