<svg width="26" height="17" viewBox="0 0 26 17" xmlns="http://www.w3.org/2000/svg"><title>GooglePlus</title><path d="M23.083 6.281V3H21v3.281h-3v2.344h3V12h2.083V8.625H26V6.281h-2.917zM8.62 6.817v3.366s3.312-.004 4.66-.004c-.73 2.182-1.865 3.37-4.66 3.37-2.827 0-5.035-2.26-5.035-5.049 0-2.789 2.208-5.05 5.035-5.05 1.496 0 2.461.519 3.347 1.241.71-.7.65-.799 2.454-2.479A8.655 8.655 0 0 0 8.62 0C3.86 0 0 3.806 0 8.5S3.86 17 8.62 17c7.115 0 8.854-6.11 8.278-10.183H8.619z" fill="#2C3238" fill-rule="evenodd"/></svg>