<svg width="28" height="20" viewBox="0 0 28 20" xmlns="http://www.w3.org/2000/svg" xmlns:xlink="http://www.w3.org/1999/xlink"><title>44A5B369-D11F-40A3-82EB-204D25AD47C6</title><defs><rect id="a" width="28" height="20" rx="2"/><mask id="b" x="0" y="0" width="28" height="20" fill="#fff"><use xlink:href="#a"/></mask><mask id="c" x="0" y="0" width="28" height="20" fill="#fff"><use xlink:href="#a"/></mask></defs><g fill="none" fill-rule="evenodd"><mask id="d" fill="#fff"><use xlink:href="#a"/></mask><g stroke="#F5F5F5" mask="url(#b)" fill="#FFF"><use mask="url(#c)" xlink:href="#a"/></g><path d="M0 0h5.333v5.333H0V0zm8 0h5.333v5.333H8V0zm5.333 0H28v2.667H13.333V0zm0 5.333H28V8H13.333V5.333zm0 5.334H28v2.666H13.333v-2.666zM0 16h28v2.667H0V16zm8-8h5.333v5.333H8V8zM0 8h5.333v5.333H0V8z" fill="#1C6DC1" mask="url(#d)"/></g></svg>