<svg width="18" height="14" viewBox="0 0 18 14" xmlns="http://www.w3.org/2000/svg"><title>Twitter</title><path d="M15.555 4.234c-.072 1.373-.47 2.728-1.082 3.964-1.804 3.576-5.273 5.558-9.261 5.349a9.893 9.893 0 0 1-5.214-1.825c.26.035.542.072.804.086a6.94 6.94 0 0 0 4.37-1.257c-1.459-.098-2.715-1.148-3.1-2.566a3.322 3.322 0 0 0 1.572.017C2.051 7.59.926 6.11 1.055 4.479l.003-.044c.466.287.98.467 1.546.518a3.44 3.44 0 0 1-1.396-2.957 3.48 3.48 0 0 1 .549-1.72 9.931 9.931 0 0 0 6.936 3.991 3.213 3.213 0 0 1-.046-.789A3.464 3.464 0 0 1 12.292.195c.937.05 1.832.49 2.45 1.22a7.075 7.075 0 0 0 2.244-.712A3.467 3.467 0 0 1 15.36 2.52a6.25 6.25 0 0 0 2.011-.44 6.727 6.727 0 0 1-1.815 1.696c.014.154.006.306-.002.459z" fill="#2C3238" fill-rule="evenodd"/></svg>