<svg width="56" height="45" viewBox="0 0 56 45" xmlns="http://www.w3.org/2000/svg"><title>Preloader</title><g fill="#A9B0BF" fill-rule="evenodd"><path d="M41.8 25.579c-1.482 0-3.964 0-5.97-1.047-2.316-1.208-3.443-3.5-3.443-7.01a.798.798 0 1 0-1.595 0c0 1.648.238 3.088.702 4.322-.685.611-1.561 1.076-2.556 1.35a8.848 8.848 0 0 0-1.58.592c-.026-.016-.05-.033-.08-.046a9.842 9.842 0 0 1-5.74-8.93 9.813 9.813 0 0 1 5.346-8.738c.041.71.261 1.287.662 1.716.465.497 1.142.76 1.959.76h1.817c1.057 0 2.07-.614 3.011-1.824l1.224-1.697h.002c2.91.21 4.642 1.414 5.146 3.581.727 3.13 2.9 4.925 5.962 4.925h4.148c1.018 0 2.26.21 2.961 1.556h-1.485a.798.798 0 1 0 0 1.595h1.955c.05.369.079.778.079 1.237 0 4.938-4.448 7.658-12.524 7.658zm-12.573 6.6c-1.606-.158-3.226-1.342-3.226-3.632 0-1.971 1.068-3.183 3.36-3.815a8.103 8.103 0 0 0 2.856-1.416 7.214 7.214 0 0 0 1.882 2.017c-.802.922-1.926 1.605-3.479 2.121a.798.798 0 0 0 .503 1.514c1.936-.643 3.374-1.57 4.377-2.823 1.173.535 2.416.792 3.555.915-1.774 3.448-5.68 5.525-9.828 5.118zm-3.374 2.2a33.628 33.628 0 0 1-11.62-11.581c2.55-1.485 4.663-2.942 6.307-4.355a11.453 11.453 0 0 0 5.328 6.372c-.972.942-1.462 2.189-1.462 3.732 0 1.784.777 3.301 2.05 4.238a47.719 47.719 0 0 1-.603 1.594zm-2.051 4.38a.795.795 0 0 0-.22-.193A38.402 38.402 0 0 1 10.045 25.06a84.607 84.607 0 0 0 2.8-1.476 35.22 35.22 0 0 0 12.382 12.281 38.71 38.71 0 0 1-1.425 2.894zm1.044-34.328c.036-.342.225-1.4 1.164-1.4h1.062l-.095 1.262a.793.793 0 0 0-.175.052c-.726.316-1.406.703-2.037 1.15l.08-1.064zm3.63 1.185l.199-2.621c.036-.341.225-1.4 1.164-1.4h3.785c.447 0 1.03.093 1.271.535.184.339.144.84-.097 1.223l-1.733 2.402c-.62.794-1.206 1.197-1.743 1.197h-1.817c-.254 0-.597-.044-.794-.254-.237-.254-.258-.732-.235-1.082zm22.339 6.322h-4.148c-1.62 0-3.7-.64-4.409-3.69-.611-2.63-2.656-4.288-5.793-4.727.232-.725.18-1.513-.169-2.154C36.02.857 35.302 0 33.624 0h-3.785c-1.015 0-1.855.542-2.337 1.436H26.01c-1.473 0-2.58 1.142-2.752 2.843l-.201 2.653c-.002.014 0 .028 0 .042a11.406 11.406 0 0 0-2.954 9.723C14.935 21.465 5.137 25.6 5.037 25.641a.798.798 0 1 0 .616 1.471c.071-.03 1.23-.517 2.955-1.345A40.007 40.007 0 0 0 22.773 39.94a.796.796 0 0 0 .292.102 32.692 32.692 0 0 1-2.157 3.155.797.797 0 1 0 1.261.978c2.34-3.021 4.213-6.513 5.718-10.657.374.122.77.207 1.185.247.397.039.792.058 1.184.058 4.588 0 8.758-2.61 10.514-6.658.376.008.723.008 1.03.008 4.777 0 8.426-.912 10.847-2.71 2.141-1.59 3.273-3.853 3.273-6.543 0-2.235-.663-5.983-5.105-5.983z"/><path d="M38.29 8.508h-2.712a.798.798 0 1 0 0 1.595h2.713a.798.798 0 1 0 0-1.595m-22.297 5.77a.798.798 0 0 0-.797-.798H.797a.798.798 0 1 0 0 1.595h14.4c.44 0 .797-.357.797-.797M6.142 10.29h9.852a.798.798 0 1 0 0-1.596H6.142a.798.798 0 1 0 0 1.595m5.053-4.786h7.445a.798.798 0 1 0 0-1.596h-7.445a.798.798 0 1 0 0 1.596"/></g></svg>