<svg width="18" height="17" viewBox="0 0 18 17" xmlns="http://www.w3.org/2000/svg"><title>Shape</title><path d="M9 11.075a1.789 1.789 0 0 1-1.186-.4l-6.15-4.1a.359.359 0 0 1-.1-.5.365.365 0 0 1 .521-.1l6.151 4.1a1.4 1.4 0 0 0 1.525 0l6.151-4.1a.365.365 0 0 1 .521.1.357.357 0 0 1-.1.5l-6.151 4.1c-.333.27-.753.413-1.182.4zm7.125 5.9H1.875A1.836 1.836 0 0 1 0 15.175v-8.9a1.732 1.732 0 0 1 .856-1.5L7.78.375c.74-.5 1.709-.5 2.448 0l6.916 4.4c.532.312.858.883.856 1.5v8.9a1.836 1.836 0 0 1-1.875 1.8zM9 .675c-.295.001-.58.107-.805.3l-6.931 4.4a1.147 1.147 0 0 0-.514.9v8.9c.01.613.512 1.104 1.125 1.1h14.25a1.118 1.118 0 0 0 1.125-1.1v-8.9a1.147 1.147 0 0 0-.514-.9L9.812.975A1.273 1.273 0 0 0 9 .675zm-7.125 14.8a.316.316 0 0 1-.289-.1.334.334 0 0 1 .048-.5l4.5-3.7a.367.367 0 0 1 .529 0 .334.334 0 0 1-.048.5l-4.5 3.7a.247.247 0 0 1-.24.1zm14.25 0a.248.248 0 0 1-.24-.1l-4.5-3.7a.334.334 0 0 1-.048-.5.367.367 0 0 1 .529 0l4.5 3.7a.335.335 0 0 1 .048.5.317.317 0 0 1-.289.1z" fill="#A8ACB9" fill-rule="evenodd"/></svg>