<svg width="203" height="28" viewBox="0 0 203 28" xmlns="http://www.w3.org/2000/svg" xmlns:xlink="http://www.w3.org/1999/xlink"><title>Logo</title><defs><path id="a" d="M0 27.558h202.815V0H0z"/></defs><g fill="none" fill-rule="evenodd"><path d="M65.608 13.202c-2.038 0-3.154 1.116-3.688 1.625V13.66h-2.982v13.46h3.225v-6.402c0-1.14 0-2.546.584-3.37.581-.897 1.625-1.19 2.206-1.19 2.715 0 2.715 3.204 2.715 4.317v6.645h3.226v-7.275c0-1.043 0-3.297-1.237-4.777-1.117-1.36-2.884-1.867-4.049-1.867zm9.397 6.039c.608-2.497 2.62-3.154 3.808-3.154 1.6 0 3.273.995 3.64 3.154h-7.448zm3.783-6.114c-4.145 0-7.08 3.494-7.08 7.3 0 3.93 3.102 7.13 7.105 7.13 3.152 0 5.722-2.256 6.499-4.68h-3.394c-.609 1.116-1.673 1.721-3.105 1.721-2.304 0-3.566-1.89-3.71-2.764h10.451c.097-.436.196-.994.196-1.624 0-3.397-2.692-7.083-6.962-7.083zm19.197 8.757h-.047l-2.183-8.223h-2.572l-2.206 8.223h-.048l-2.449-8.223h-3.445l4.853 13.46h1.987l2.546-8.73h.047l2.523 8.73h1.99l4.923-13.46h-3.446zm19.239 2.714c-1.892 0-4.049-1.406-4.049-4.388 0-1.965 1.526-4.051 4-4.051 2.038 0 3.93 1.577 3.93 4.195 0 2.622-1.771 4.244-3.88 4.244m.34-11.396c-1.504 0-3.081.556-4.197 1.672V9.175h-3.225v17.946h2.958v-1.624c.799.896 1.94 2.06 4.535 2.06 4.924 0 6.693-4.534 6.693-7.227 0-3.564-2.666-7.128-6.764-7.128M132.4 24.598c-2.305 0-4.001-1.865-4.001-4.145 0-2.013 1.358-4.294 4-4.294 1.917 0 3.93 1.406 3.93 4.195 0 2.498-1.7 4.244-3.93 4.244zm4.025-9.24h-.05c-.098-.194-1.721-2.156-4.46-2.156-3.734 0-6.74 2.982-6.74 7.105 0 4.485 3.076 7.25 6.546 7.25 1.697 0 3.685-.894 4.704-2.107v1.67h2.958V13.66h-2.958v1.698z" fill="#FFF"/><mask id="b" fill="#fff"><use xlink:href="#a"/></mask><path fill="#FFF" mask="url(#b)" d="M141.1 27.12h3.226V9.177H141.1zm11.42-2.522c-2.304 0-4.002-1.865-4.002-4.145 0-2.013 1.358-4.294 4.002-4.294 1.915 0 3.928 1.406 3.928 4.195 0 2.498-1.696 4.244-3.928 4.244zm4.025-9.24h-.049c-.096-.194-1.721-2.156-4.463-2.156-3.736 0-6.744 2.982-6.744 7.105 0 4.485 3.083 7.25 6.55 7.25 1.699 0 3.686-.894 4.706-2.107v1.67h2.962V13.66h-2.962v1.698zm11.345-2.156c-2.038 0-3.155 1.116-3.687 1.625V13.66h-2.984v13.46h3.226v-6.402c0-1.14 0-2.546.581-3.37.582-.897 1.626-1.19 2.207-1.19 2.715 0 2.715 3.204 2.715 4.317v6.645h3.23v-7.275c0-1.043 0-3.297-1.24-4.777-1.115-1.36-2.885-1.867-4.049-1.867m13.618 2.958c1.99 0 2.74 1.287 3.13 1.964h3.635c-1.382-4.147-5.067-4.921-6.765-4.921-3.71 0-7.131 3.007-7.131 7.128 0 4.462 3.711 7.228 7.155 7.228 3.154 0 5.65-1.818 6.741-4.825h-3.636c-.849 1.358-1.916 1.865-2.984 1.865-2.425 0-4.05-1.916-4.05-4.22 0-2.764 1.941-4.219 3.905-4.219m10.563 3.082c.606-2.497 2.62-3.154 3.808-3.154 1.6 0 3.272.995 3.637 3.154h-7.445zm10.744.97c0-3.398-2.692-7.084-6.96-7.084-4.149 0-7.082 3.494-7.082 7.3 0 3.93 3.104 7.13 7.106 7.13 3.154 0 5.721-2.256 6.497-4.68h-3.393c-.607 1.116-1.674 1.721-3.104 1.721-2.305 0-3.565-1.89-3.712-2.764h10.454c.095-.436.194-.994.194-1.624zM47.881 8.187c-.668 1.628-2.5 2.43-4.252 2.439l-2.637.02 3.027-5.255 2.552.003c1.1-.006 1.929 1.282 1.31 2.793m-5.384 10.527c-.772 1.995-3.283 2.694-4.683 2.694H34.79l3.174-5.503 3.015-.001c.917-.002 2.233.956 1.518 2.81M50.117 0L34.658.001l-1.95 3.385 8.337.583-.314.56-9.013.579-2.662 4.62 8.363.543-.322.555L8.57 12.678 7.3 14.88l26.5 1.673-.319.554-14.753.861 1.118 4.185 10.368.631-.325.56-9.56.671.901 3.533 18.25-.008c4.393-.004 12.294-2.907 13.21-9.01.518-3.439-2.48-4.766-3.682-4.91 5.668-1.597 7.6-5.409 8.011-6.923C58.385 1.698 54.87 0 50.117 0M26.41.01L15.87.001l-1.269 2.204 12.605.792z"/><path fill="#FFF" mask="url(#b)" d="M27.806 5.358l-15.586.981-1.27 2.204 18.01 1.185zM3.652 21.219l12.69.715 2.293-3.96-13.714 1.042zM0 27.558l13.115-.017 1.827-3.145-13.671.958z"/></g></svg>