<svg width="124" height="30" viewBox="0 0 124 30" xmlns="http://www.w3.org/2000/svg"><title>Logo</title><g fill="#FFF" fill-rule="evenodd"><path d="M27.355 10.7l-6.19 12.652 11.094-10.909-4.904-1.742zm-7.61 15.03a.41.41 0 0 1-.368-.589l7.403-15.128a.408.408 0 0 1 .504-.205l5.865 2.083a.41.41 0 0 1 .15.677L20.032 25.613a.408.408 0 0 1-.287.117z"/><path d="M15.403 5.587l15.949 5.665L20.885 1.224l-5.482 4.363zm17.609 7.098a.405.405 0 0 1-.137-.024l-18.44-6.55a.41.41 0 0 1-.118-.705L20.655.36a.41.41 0 0 1 .538.025L33.295 11.98a.41.41 0 0 1-.283.704zM12.595 8.532L2.093 27.348 17.07 13.019l-4.476-4.487zM.41 29.933a.409.409 0 0 1-.357-.608L12.145 7.66a.41.41 0 0 1 .647-.089l5.153 5.166a.41.41 0 0 1-.007.585L.692 29.82a.41.41 0 0 1-.283.113zm41.84-15.67h4.525v-3.585h.979v8.824h-.98v-4.313H42.25v4.313h-.979v-8.824h.98zm10.953.833c0 2.024 1.6 3.638 3.585 3.638 1.984 0 3.585-1.614 3.585-3.638s-1.6-3.638-3.585-3.638c-1.984 0-3.585 1.614-3.585 3.638m-1.006 0c0-2.632 2.05-4.564 4.59-4.564s4.592 1.932 4.592 4.564c0 2.62-2.038 4.564-4.591 4.564-2.553 0-4.59-1.944-4.59-4.564m13.624-4.418h4.022v.926H66.8v7.898h-.979zm14.128 2.09l-6.138 7.13v-9.22h.978v6.76l6.139-7.13v9.194h-.98zm6.878 5.808h1.138c.397 0 1.124 0 1.627-.49.238-.225.463-.621.463-1.257 0-.423-.106-1.005-.715-1.336-.41-.225-.939-.225-1.481-.225h-1.032v3.308zm-.98-7.898h4.38v.926h-3.4v2.738h1.19c1.085 0 3.043.225 3.043 2.487 0 1.68-1.124 2.673-2.857 2.673h-2.355v-8.824zm10.054 4.418c0 2.024 1.6 3.638 3.586 3.638 1.984 0 3.585-1.614 3.585-3.638s-1.601-3.638-3.585-3.638c-1.985 0-3.586 1.614-3.586 3.638m-1.005 0c0-2.632 2.05-4.564 4.59-4.564s4.591 1.932 4.591 4.564c0 2.62-2.037 4.564-4.59 4.564-2.554 0-4.591-1.944-4.591-4.564m13.625-4.418h4.021v.926h-3.042v7.898h-.98zm14.128 2.09l-6.139 7.13v-9.22h.98v6.76l6.138-7.13v9.194h-.98z"/></g></svg>